# xmcd CD database file
# Copyright (C) 1993-1996 Ti Kan
#
# Track frame offsets:
# 150
# 11325
# 24540
# 39428
# 50858
# 62465
# 74733
# 89658
# 101840
# 113163
# 124750
# 137598
# 151675
# 161733
#
# Disc length: 2343 seconds
#
# Revision: 0
# Processed by: cddbd v1.4b41PL1 Copyright (c) Steve Scherf et al.
# Submitted via: inCDius 1.1b5
#
DISCID=bd09250e
DTITLE=Connie Smith - Greatest Hits On Monument
DYEAR=1900
DGENRE=
TTITLE0=Coming Around
TTITLE1=You And Love And I
TTITLE2=I Just Want To Be Your Everything
TTITLE3=Lovin' You Baby
TTITLE4=All Of A Sudden
TTITLE5=There'll Never Be Another For Me
TTITLE6=Lovin' You, Lovin' Me
TTITLE7=The Wayward Wind
TTITLE8=Smooth Sailin'
TTITLE9=Loving You Has Sure Been Good To Me
TTITLE10=Ten Thousand And One
TTITLE11=Don't Say Love
TTITLE12=I Don't Want To Be Free
TTITLE13=Don't Make Me Dream (If Dreamin' Can't Come True)
EXTD=
EXTT0=
EXTT1=
EXTT2=
EXTT3=
EXTT4=
EXTT5=
EXTT6=
EXTT7=
EXTT8=
EXTT9=
EXTT10=
EXTT11=
EXTT12=
EXTT13=
PLAYORDER=
